# xmcd
#
# Track frame offsets: 
#        150
#        14850
#        30230
#        44285
#        58057
#        70013
#        84615
#        98069
#        110695
#        124450
#        138230
#        150819
#        162450
#        174143
#        187693
#        201504
#        215215
#        228154
#        242260
#        255723
#        268632
#        282184
#        296184
#        311009
#        323310
#        336218
#
# Disc length: 4766 seconds
#
# Revision: 0
# Processed by: cddbd v1.5.2PL0 Copyright (c) Steve Scherf et al.
# Submitted via: ExactAudioCopy v0.95b3
#
DISCID=70129c1a
DTITLE=Benny Goodman and His Orchestra  - The Essential BG - Disc 3 - Le
DTITLE=t's Dance
DYEAR=1900
DGENRE=
TTITLE0=One O'Clock Jump
TTITLE1=I Let A Song Go Out Of My Heart
TTITLE2=Big John Special
TTITLE3=Wrappin' It Up
TTITLE4=Back Goes To Town
TTITLE5=And The Angels Sing
TTITLE6=Show Your Linen, Miss Richardson
TTITLE7=There'll Be Some Changes Made
TTITLE8=Jumpin' At The Woodside
TTITLE9=Stealin' Apples
TTITLE10=Night And Day
TTITLE11=I Thought About You
TTITLE12=Let's Dance
TTITLE13=Darn That Dream
TTITLE14=Honeysuckle Rose
TTITLE15=Opus Local 802
TTITLE16=Board Meeting
TTITLE17=Zaggin' With Zig
TTITLE18=How High The Moon
TTITLE19=Shake Down The Stars
TTITLE20=Yous Is My Heart Alone
TTITLE21=Cocoanut Grove
TTITLE22=The Hour Of Parting
TTITLE23=Crazy Rhythm
TTITLE24=Who Cares
TTITLE25=Benny Rides Again
EXTD=
EXTT0=
EXTT1=
EXTT2=
EXTT3=
EXTT4=
EXTT5=
EXTT6=
EXTT7=
EXTT8=
EXTT9=
EXTT10=
EXTT11=
EXTT12=
EXTT13=
EXTT14=
EXTT15=
EXTT16=
EXTT17=
EXTT18=
EXTT19=
EXTT20=
EXTT21=
EXTT22=
EXTT23=
EXTT24=
EXTT25=
PLAYORDER=
